<svg xmlns="http://www.w3.org/2000/svg" xmlns:xlink="http://www.w3.org/1999/xlink" width="48" height="57.677" viewBox="0 0 48 57.677">
  <defs>
    <filter id="矩形_54" x="0" y="0" width="48" height="57.677" filterUnits="userSpaceOnUse">
      <feOffset dx="8" dy="8" input="SourceAlpha"/>
      <feGaussianBlur stdDeviation="3" result="blur"/>
      <feFlood flood-opacity="0.161"/>
      <feComposite operator="in" in2="blur"/>
      <feComposite in="SourceGraphic"/>
    </filter>
  </defs>
  <g id="组_65" data-name="组 65" transform="translate(-1869 -1654)">
    <g transform="matrix(1, 0, 0, 1, 1869, 1654)" filter="url(#矩形_54)">
      <g id="矩形_54-2" data-name="矩形 54" transform="translate(1 1)" fill="#fff" stroke="#707070" stroke-width="3">
        <rect width="30" height="39.677" rx="12" stroke="none"/>
        <rect x="1.5" y="1.5" width="27" height="36.677" rx="10.5" fill="none"/>
      </g>
    </g>
    <g id="矩形_55" data-name="矩形 55" transform="translate(1877.5 1660.853)" fill="#fff" stroke="#707070" stroke-width="2">
      <rect width="15" height="6.148" stroke="none"/>
      <rect x="1" y="1" width="13" height="4.148" fill="none"/>
    </g>
    <g id="椭圆_23" data-name="椭圆 23" transform="translate(1875.5 1668)" fill="#616161" stroke="#707070" stroke-width="1">
      <circle cx="2" cy="2" r="2" stroke="none"/>
      <circle cx="2" cy="2" r="1.5" fill="none"/>
    </g>
    <g id="椭圆_23-2" data-name="椭圆 23" transform="translate(1882.5 1668)" fill="#616161" stroke="#707070" stroke-width="1">
      <circle cx="2" cy="2" r="2" stroke="none"/>
      <circle cx="2" cy="2" r="1.5" fill="none"/>
    </g>
    <g id="椭圆_23-3" data-name="椭圆 23" transform="translate(1889.5 1668)" fill="#616161" stroke="#707070" stroke-width="1">
      <circle cx="2" cy="2" r="2" stroke="none"/>
      <circle cx="2" cy="2" r="1.5" fill="none"/>
    </g>
    <g id="椭圆_23-4" data-name="椭圆 23" transform="translate(1875.5 1676)" fill="#616161" stroke="#707070" stroke-width="1">
      <circle cx="2" cy="2" r="2" stroke="none"/>
      <circle cx="2" cy="2" r="1.5" fill="none"/>
    </g>
    <g id="椭圆_23-5" data-name="椭圆 23" transform="translate(1882.5 1676)" fill="#616161" stroke="#707070" stroke-width="1">
      <circle cx="2" cy="2" r="2" stroke="none"/>
      <circle cx="2" cy="2" r="1.5" fill="none"/>
    </g>
    <g id="椭圆_23-6" data-name="椭圆 23" transform="translate(1889.5 1676)" fill="#616161" stroke="#707070" stroke-width="1">
      <circle cx="2" cy="2" r="2" stroke="none"/>
      <circle cx="2" cy="2" r="1.5" fill="none"/>
    </g>
    <g id="椭圆_23-7" data-name="椭圆 23" transform="translate(1875.5 1684)" fill="#616161" stroke="#707070" stroke-width="1">
      <circle cx="2" cy="2" r="2" stroke="none"/>
      <circle cx="2" cy="2" r="1.5" fill="none"/>
    </g>
    <g id="椭圆_23-8" data-name="椭圆 23" transform="translate(1882.5 1684)" fill="#616161" stroke="#707070" stroke-width="1">
      <circle cx="2" cy="2" r="2" stroke="none"/>
      <circle cx="2" cy="2" r="1.5" fill="none"/>
    </g>
    <g id="椭圆_23-9" data-name="椭圆 23" transform="translate(1889.5 1684)" fill="#616161" stroke="#707070" stroke-width="1">
      <circle cx="2" cy="2" r="2" stroke="none"/>
      <circle cx="2" cy="2" r="1.5" fill="none"/>
    </g>
  </g>
</svg>
