<svg xmlns="http://www.w3.org/2000/svg" xmlns:xlink="http://www.w3.org/1999/xlink" width="97" height="122" viewBox="0 0 97 122">
  <defs>
    <filter id="矩形_54" x="0" y="0" width="97" height="122" filterUnits="userSpaceOnUse">
      <feOffset dx="8" dy="8" input="SourceAlpha"/>
      <feGaussianBlur stdDeviation="3" result="blur"/>
      <feFlood flood-opacity="0.161"/>
      <feComposite operator="in" in2="blur"/>
      <feComposite in="SourceGraphic"/>
    </filter>
  </defs>
  <g id="组_41" data-name="组 41" transform="translate(-1869 -1654)">
    <g id="组_40" data-name="组 40" transform="translate(286 88)">
      <g transform="matrix(1, 0, 0, 1, 1583, 1566)" filter="url(#矩形_54)">
        <g id="矩形_54-2" data-name="矩形 54" transform="translate(1 1)" fill="#fff" stroke="#707070" stroke-width="7">
          <rect width="79" height="104" rx="21" stroke="none"/>
          <rect x="3.5" y="3.5" width="72" height="97" rx="17.5" fill="none"/>
        </g>
      </g>
    </g>
    <g id="矩形_55" data-name="矩形 55" transform="translate(1894.5 1671)" fill="#fff" stroke="#707070" stroke-width="3">
      <rect width="30" height="12.295" stroke="none"/>
      <rect x="1.5" y="1.5" width="27" height="9.295" fill="none"/>
    </g>
    <g id="椭圆_23" data-name="椭圆 23" transform="translate(1889 1689)" fill="#616161" stroke="#707070" stroke-width="3">
      <circle cx="5" cy="5" r="5" stroke="none"/>
      <circle cx="5" cy="5" r="3.5" fill="none"/>
    </g>
    <g id="椭圆_23-2" data-name="椭圆 23" transform="translate(1905 1689)" fill="#616161" stroke="#707070" stroke-width="3">
      <circle cx="5" cy="5" r="5" stroke="none"/>
      <circle cx="5" cy="5" r="3.5" fill="none"/>
    </g>
    <g id="椭圆_23-3" data-name="椭圆 23" transform="translate(1889 1710)" fill="#616161" stroke="#707070" stroke-width="3">
      <circle cx="5" cy="5" r="5" stroke="none"/>
      <circle cx="5" cy="5" r="3.5" fill="none"/>
    </g>
    <g id="椭圆_23-4" data-name="椭圆 23" transform="translate(1905 1710)" fill="#616161" stroke="#707070" stroke-width="3">
      <circle cx="5" cy="5" r="5" stroke="none"/>
      <circle cx="5" cy="5" r="3.5" fill="none"/>
    </g>
    <g id="椭圆_23-5" data-name="椭圆 23" transform="translate(1889 1731)" fill="#616161" stroke="#707070" stroke-width="3">
      <circle cx="5" cy="5" r="5" stroke="none"/>
      <circle cx="5" cy="5" r="3.5" fill="none"/>
    </g>
    <g id="椭圆_23-6" data-name="椭圆 23" transform="translate(1905 1731)" fill="#616161" stroke="#707070" stroke-width="3">
      <circle cx="5" cy="5" r="5" stroke="none"/>
      <circle cx="5" cy="5" r="3.5" fill="none"/>
    </g>
    <g id="椭圆_23-7" data-name="椭圆 23" transform="translate(1921 1689)" fill="#616161" stroke="#707070" stroke-width="3">
      <circle cx="5" cy="5" r="5" stroke="none"/>
      <circle cx="5" cy="5" r="3.5" fill="none"/>
    </g>
    <g id="椭圆_23-8" data-name="椭圆 23" transform="translate(1921 1710)" fill="#616161" stroke="#707070" stroke-width="3">
      <circle cx="5" cy="5" r="5" stroke="none"/>
      <circle cx="5" cy="5" r="3.5" fill="none"/>
    </g>
    <g id="椭圆_23-9" data-name="椭圆 23" transform="translate(1921 1731)" fill="#616161" stroke="#707070" stroke-width="3">
      <circle cx="5" cy="5" r="5" stroke="none"/>
      <circle cx="5" cy="5" r="3.5" fill="none"/>
    </g>
  </g>
</svg>
