<svg xmlns="http://www.w3.org/2000/svg" width="1920" height="288" viewBox="0 0 1920 288">
  <g id="组_45" data-name="组 45" transform="translate(5965 -5127)">
    <rect id="矩形_25" data-name="矩形 25" width="1920" height="288" transform="translate(-5965 5127)" fill="#5a5757"/>
    <text id="Copyright_日不落資訊工作室" data-name="Copyright © 日不落資訊工作室" transform="translate(-5551 5276.632)" fill="#333" font-size="65" font-family="SourceHanSansTW-Regular, Source Han Sans TW"><tspan x="0" y="0">Copyright © 日不落資訊工作室</tspan></text>
    <g id="组_48" data-name="组 48" transform="translate(-5797.154 1632)">
      <path id="mail" d="M66.91,5H9.559A9.561,9.561,0,0,0,0,14.559V45.624a9.559,9.559,0,0,0,9.559,9.559H66.91a9.559,9.559,0,0,0,9.559-9.559V14.559A9.561,9.561,0,0,0,66.91,5ZM4.779,17.546,21.5,30.091,4.779,42.637Zm66.91,28.078A4.784,4.784,0,0,1,66.91,50.4H9.559a4.783,4.783,0,0,1-4.779-4.779L23.5,31.585l10.438,7.831a7.165,7.165,0,0,0,8.6,0l10.44-7.831L71.689,45.624Zm0-2.987L54.962,30.091,71.689,17.546ZM41.1,37.5a4.776,4.776,0,0,1-5.733,0l-9.881-7.413L23.5,28.6,4.779,14.561v0A4.784,4.784,0,0,1,9.559,9.779H66.91a4.786,4.786,0,0,1,4.779,4.779Z" transform="translate(588.911 3693.59)" fill="#333"/>
      <text id="nmsl7414_gmail.com" data-name="nmsl7414@gmail.com" transform="translate(675.396 3731.772)" fill="#333" font-size="32" font-family="SourceHanSansTW-Light, Source Han Sans TW" font-weight="300" opacity="0.7"><tspan x="0" y="0">nmsl7414@gmail.com</tspan></text>
    </g>
  </g>
</svg>
