<svg xmlns="http://www.w3.org/2000/svg" xmlns:xlink="http://www.w3.org/1999/xlink" width="924" height="195" viewBox="0 0 924 195">
  <defs>
    <filter id="矩形_29" x="0" y="4" width="924" height="191" filterUnits="userSpaceOnUse">
      <feOffset dx="8" dy="8" input="SourceAlpha"/>
      <feGaussianBlur stdDeviation="4" result="blur"/>
      <feFlood flood-opacity="0.161"/>
      <feComposite operator="in" in2="blur"/>
    </filter>
    <filter id="矩形_29-2" x="0" y="4" width="924" height="191" filterUnits="userSpaceOnUse">
      <feOffset dx="8" dy="8" input="SourceAlpha"/>
      <feGaussianBlur stdDeviation="4" result="blur-2"/>
      <feFlood flood-opacity="0.161" result="color"/>
      <feComposite operator="out" in="SourceGraphic" in2="blur-2"/>
      <feComposite operator="in" in="color"/>
      <feComposite operator="in" in2="SourceGraphic"/>
    </filter>
    <filter id="矩形_30" x="869" y="140" width="20" height="20" filterUnits="userSpaceOnUse">
      <feOffset dx="8" dy="8" input="SourceAlpha"/>
      <feGaussianBlur stdDeviation="4" result="blur-3"/>
      <feFlood flood-opacity="0.161" result="color-2"/>
      <feComposite operator="out" in="SourceGraphic" in2="blur-3"/>
      <feComposite operator="in" in="color-2"/>
      <feComposite operator="in" in2="SourceGraphic"/>
    </filter>
  </defs>
  <g id="组_46" data-name="组 46" transform="translate(-502 -456)">
    <g data-type="innerShadowGroup">
      <g transform="matrix(1, 0, 0, 1, 502, 456)" filter="url(#矩形_29)">
        <g id="矩形_29-3" data-name="矩形 29" transform="translate(4 8)" fill="none" stroke="#fff" stroke-width="14">
          <rect width="900" height="167" rx="44" stroke="none"/>
          <rect x="7" y="7" width="886" height="153" rx="37" fill="none"/>
        </g>
      </g>
      <g transform="matrix(1, 0, 0, 1, 502, 456)" filter="url(#矩形_29-2)">
        <rect id="矩形_29-4" data-name="矩形 29" width="900" height="167" rx="44" transform="translate(4 8)" fill="#fff"/>
      </g>
      <g id="矩形_29-5" data-name="矩形 29" transform="translate(506 464)" fill="none" stroke="#fff" stroke-width="14">
        <rect width="900" height="167" rx="44" stroke="none"/>
        <rect x="7" y="7" width="886" height="153" rx="37" fill="none"/>
      </g>
    </g>
    <g data-type="innerShadowGroup">
      <g transform="matrix(1, 0, 0, 1, 502, 456)" filter="url(#矩形_30)">
        <rect id="矩形_30-2" data-name="矩形 30" width="20" height="20" transform="translate(869 140)" fill="#fff"/>
      </g>
      <g id="矩形_30-3" data-name="矩形 30" transform="translate(1371 596)" fill="none" stroke="#fff" stroke-width="14">
        <rect width="20" height="20" stroke="none"/>
        <rect x="7" y="7" width="6" height="6" fill="none"/>
      </g>
    </g>
    <g id="椭圆_17" data-name="椭圆 17" transform="translate(541 502)" fill="#fff" stroke="#707070" stroke-width="1">
      <circle cx="7.5" cy="7.5" r="7.5" stroke="none"/>
      <circle cx="7.5" cy="7.5" r="7" fill="none"/>
    </g>
    <g id="椭圆_18" data-name="椭圆 18" transform="translate(1356 502)" fill="#fff" stroke="#707070" stroke-width="1">
      <circle cx="7.5" cy="7.5" r="7.5" stroke="none"/>
      <circle cx="7.5" cy="7.5" r="7" fill="none"/>
    </g>
    <g id="椭圆_19" data-name="椭圆 19" transform="translate(541 584)" fill="#fff" stroke="#707070" stroke-width="1">
      <circle cx="7.5" cy="7.5" r="7.5" stroke="none"/>
      <circle cx="7.5" cy="7.5" r="7" fill="none"/>
    </g>
    <g id="椭圆_20" data-name="椭圆 20" transform="translate(1356 587)" fill="#fff" stroke="#707070" stroke-width="1">
      <circle cx="7.5" cy="7.5" r="7.5" stroke="none"/>
      <circle cx="7.5" cy="7.5" r="7" fill="none"/>
    </g>
    <text id="文檔輔助" transform="translate(702 603)" fill="#fff" font-size="127" font-family="SourceHanSansTW-Regular, Source Han Sans TW"><tspan x="0" y="0">數學計算</tspan></text>
  </g>
</svg>
