<svg xmlns="http://www.w3.org/2000/svg" width="15" height="9.844" viewBox="0 0 15 9.844">
  <path id="mail" d="M13.125,5H1.875A1.875,1.875,0,0,0,0,6.875v6.094a1.875,1.875,0,0,0,1.875,1.875h11.25A1.875,1.875,0,0,0,15,12.969V6.875A1.875,1.875,0,0,0,13.125,5ZM.938,7.461,4.218,9.922.938,12.383Zm13.125,5.508a.938.938,0,0,1-.938.938H1.875a.938.938,0,0,1-.937-.937l3.671-2.754,2.048,1.536a1.406,1.406,0,0,0,1.687,0l2.048-1.536,3.671,2.754Zm0-.586L10.781,9.922l3.281-2.461Zm-6-1.007a.937.937,0,0,1-1.125,0L5,9.922l-.39-.293L.938,6.875h0a.938.938,0,0,1,.938-.937h11.25a.939.939,0,0,1,.938.938Z" transform="translate(0 -5)" fill="#333"/>
</svg>
