<svg xmlns="http://www.w3.org/2000/svg" width="121.905" height="80" viewBox="0 0 121.905 80">
  <path id="mail" d="M106.667,5H15.238A15.241,15.241,0,0,0,0,20.238V69.762A15.239,15.239,0,0,0,15.238,85h91.429A15.239,15.239,0,0,0,121.9,69.762V20.238A15.241,15.241,0,0,0,106.667,5ZM7.619,25,34.282,45,7.619,65ZM114.286,69.762a7.627,7.627,0,0,1-7.619,7.619H15.238a7.624,7.624,0,0,1-7.619-7.619L37.455,47.381,54.1,59.865a11.423,11.423,0,0,0,13.71,0L84.45,47.381l29.836,22.381Zm0-4.762L87.619,45l26.667-20ZM65.52,56.817a7.613,7.613,0,0,1-9.139,0L40.629,45l-3.173-2.381L7.619,20.242v0a7.627,7.627,0,0,1,7.619-7.619h91.429a7.629,7.629,0,0,1,7.619,7.619Z" transform="translate(0 -5)" fill="#333"/>
</svg>
