<svg xmlns="http://www.w3.org/2000/svg" xmlns:xlink="http://www.w3.org/1999/xlink" width="249" height="65.75" viewBox="0 0 249 65.75">
  <defs>
    <filter id="矩形_29" x="0" y="0" width="249" height="65.75" filterUnits="userSpaceOnUse">
      <feOffset dx="8" dy="8" input="SourceAlpha"/>
      <feGaussianBlur stdDeviation="4" result="blur"/>
      <feFlood flood-opacity="0.161"/>
      <feComposite operator="in" in2="blur"/>
    </filter>
    <filter id="矩形_29-2" x="0" y="0" width="249" height="65.75" filterUnits="userSpaceOnUse">
      <feOffset dx="8" dy="8" input="SourceAlpha"/>
      <feGaussianBlur stdDeviation="4" result="blur-2"/>
      <feFlood flood-opacity="0.161" result="color"/>
      <feComposite operator="out" in="SourceGraphic" in2="blur-2"/>
      <feComposite operator="in" in="color"/>
      <feComposite operator="in" in2="SourceGraphic"/>
    </filter>
    <filter id="矩形_30" x="215.531" y="36" width="5" height="5" filterUnits="userSpaceOnUse">
      <feOffset dx="8" dy="8" input="SourceAlpha"/>
      <feGaussianBlur stdDeviation="4" result="blur-3"/>
      <feFlood flood-opacity="0.161" result="color-2"/>
      <feComposite operator="out" in="SourceGraphic" in2="blur-3"/>
      <feComposite operator="in" in="color-2"/>
      <feComposite operator="in" in2="SourceGraphic"/>
    </filter>
    <clipPath id="clip">
      <use xlink:href="#fill"/>
    </clipPath>
  </defs>
  <g id="组_57" data-name="组 57" transform="translate(-112.531 -79)">
    <g data-type="innerShadowGroup">
      <g transform="matrix(1, 0, 0, 1, 112.53, 79)" filter="url(#矩形_29)">
        <g id="矩形_29-3" data-name="矩形 29" transform="translate(4 4)" fill="none" stroke="#fff" stroke-width="5">
          <rect width="225" height="41.75" rx="20.875" stroke="none"/>
          <rect x="2.5" y="2.5" width="220" height="36.75" rx="18.375" fill="none"/>
        </g>
      </g>
      <g transform="matrix(1, 0, 0, 1, 112.53, 79)" filter="url(#矩形_29-2)">
        <rect id="矩形_29-4" data-name="矩形 29" width="225" height="41.75" rx="20.875" transform="translate(4 4)" fill="#fff"/>
      </g>
      <g id="矩形_29-5" data-name="矩形 29" transform="translate(116.531 83)" fill="none" stroke="#fff" stroke-width="5">
        <rect width="225" height="41.75" rx="20.875" stroke="none"/>
        <rect x="2.5" y="2.5" width="220" height="36.75" rx="18.375" fill="none"/>
      </g>
    </g>
    <text id="期末輔助軟體" transform="translate(137 116)" fill="#fff" font-size="31" font-family="SourceHanSansTW-Regular, Source Han Sans TW"><tspan x="0" y="0">期末輔助軟體</tspan></text>
    <g id="椭圆_20" data-name="椭圆 20" transform="translate(321.063 93)" fill="#fff" stroke="#707070" stroke-width="1">
      <circle cx="4" cy="4" r="4" stroke="none"/>
      <circle cx="4" cy="4" r="3.5" fill="none"/>
    </g>
    <g id="椭圆_27" data-name="椭圆 27" transform="translate(129 93)" fill="#fff" stroke="#707070" stroke-width="1">
      <circle cx="4" cy="4" r="4" stroke="none"/>
      <circle cx="4" cy="4" r="3.5" fill="none"/>
    </g>
    <g id="椭圆_26" data-name="椭圆 26" transform="translate(321.063 109)" fill="#fff" stroke="#707070" stroke-width="1">
      <circle cx="4" cy="4" r="4" stroke="none"/>
      <circle cx="4" cy="4" r="3.5" fill="none"/>
    </g>
    <g id="椭圆_28" data-name="椭圆 28" transform="translate(128 109)" fill="#fff" stroke="#707070" stroke-width="1">
      <circle cx="4" cy="4" r="4" stroke="none"/>
      <circle cx="4" cy="4" r="3.5" fill="none"/>
    </g>
    <g data-type="innerShadowGroup">
      <g transform="matrix(1, 0, 0, 1, 112.53, 79)" filter="url(#矩形_30)">
        <rect id="矩形_30-2" data-name="矩形 30" width="5" height="5" rx="1" transform="translate(215.53 36)" fill="#fff"/>
      </g>
      <g id="矩形_30-3" data-name="矩形 30" transform="translate(328.063 115)" fill="none" stroke="#fff" stroke-width="14">
        <rect id="fill" width="5" height="5" rx="1" stroke="none"/>
        <path d="M0,-2h5M7,0v5M5,7h-5M-2,5v-5" fill="none" clip-path="url(#clip)"/>
      </g>
    </g>
  </g>
</svg>
