<svg xmlns="http://www.w3.org/2000/svg" width="37.222" height="27.839" viewBox="0 0 37.222 27.839">
  <g id="组_68" data-name="组 68" transform="translate(-212.041 -1680.348)">
    <g id="减去_1" data-name="减去 1" transform="translate(212.042 1680.348)" fill="#fff" stroke-linejoin="bevel">
      <path d="M 3.827711582183838 27.33880043029785 C 2.617931604385376 27.33880043029785 1.503021597862244 26.68235969543457 0.9180615544319153 25.62564086914062 C 0.4872715771198273 24.8488597869873 0.3848515748977661 23.95132064819336 0.6294915676116943 23.09803009033203 C 0.8741315603256226 22.24467086791992 1.436591625213623 21.5378303527832 2.21325159072876 21.10770034790039 L 13.27352142333984 14.97681045532227 L 13.59183120727539 14.80036067962646 L 13.52175140380859 14.44323062896729 C 13.37747192382812 13.70789051055908 13.30431175231934 12.94875049591064 13.30431175231934 12.18690013885498 C 13.30431175231934 9.065190315246582 14.52206134796143 6.13040018081665 16.73325157165527 3.923160314559937 C 18.94464111328125 1.715700268745422 21.88504219055176 0.5000002384185791 25.01280212402344 0.5000002384185791 C 28.14055252075195 0.5000002384185791 31.08096122741699 1.715700268745422 33.2923698425293 3.923160314559937 C 35.5035514831543 6.13040018081665 36.7213020324707 9.065190315246582 36.7213020324707 12.18690013885498 C 36.7213020324707 15.30827045440674 35.5035514831543 18.24294090270996 33.29236221313477 20.45031929016113 C 31.08086204528809 22.65797996520996 28.14046096801758 23.87380027770996 25.01280212402344 23.87380027770996 C 22.08820152282715 23.87380027770996 19.28821182250977 22.79204940795898 17.12862205505371 20.82781028747559 L 16.86338233947754 20.58657073974609 L 16.54979133605957 20.76038932800293 L 5.43571138381958 26.92089080810547 C 4.942521572113037 27.19429016113281 4.386491775512695 27.33880043029785 3.827711582183838 27.33880043029785 Z M 24.85980224609375 4.679500102996826 C 20.62890243530273 4.679500102996826 17.18681144714355 8.115540504455566 17.18681144714355 12.33899974822998 C 17.18681144714355 16.56245994567871 20.62890243530273 19.99850082397461 24.85980224609375 19.99850082397461 C 29.09071159362793 19.99850082397461 32.53281021118164 16.56245994567871 32.53281021118164 12.33899974822998 C 32.53281021118164 8.115540504455566 29.09071159362793 4.679500102996826 24.85980224609375 4.679500102996826 Z" stroke="none"/>
      <path d="M 3.827711582183838 26.83880043029785 C 4.301891803741455 26.83880043029785 4.774091720581055 26.71597099304199 5.19331169128418 26.48357963562012 L 16.30739212036133 20.32308006286621 L 17.46504211425781 20.45792961120605 C 19.53239250183105 22.33826065063477 22.2129020690918 23.37380027770996 25.01280212402344 23.37380027770996 C 28.00707244873047 23.37380027770996 30.822021484375 22.20988082885742 32.93910980224609 20.09646034240723 C 35.05566024780273 17.98356056213379 36.2213020324707 15.17455005645752 36.2213020324707 12.18690013885498 C 36.2213020324707 9.198909759521484 35.05567169189453 6.389800071716309 32.93914031982422 4.277029991149902 C 30.8221321105957 2.163800239562988 28.00717163085938 1.000000238418579 25.01280212402344 1.000000238418579 C 22.01843070983887 1.000000238418579 19.20347213745117 2.163800239562988 17.08649063110352 4.277029991149902 C 14.96994113922119 6.389800071716309 13.80431175231934 9.198909759521484 13.80431175231934 12.18690013885498 C 13.80431175231934 12.91651058197021 13.87432193756104 13.64325046539307 14.01240158081055 14.34696006774902 L 13.5159215927124 15.4141206741333 L 2.455491542816162 21.54510116577148 C 1.795731544494629 21.91048049926758 1.317941546440125 22.51091957092285 1.110121607780457 23.23582077026367 C 0.9023115634918213 23.9607105255127 0.9893215894699097 24.72319030761719 1.355511546134949 25.38348960876465 C 1.852421522140503 26.28116035461426 2.799721479415894 26.83880043029785 3.827711582183838 26.83880043029785 M 24.85980224609375 4.179500102996826 C 29.36641120910645 4.179500102996826 33.03281021118164 7.839840412139893 33.03281021118164 12.33899974822998 C 33.03281021118164 16.83815956115723 29.36641120910645 20.49850082397461 24.85980224609375 20.49850082397461 C 20.35320091247559 20.49850082397461 16.68681144714355 16.83815956115723 16.68681144714355 12.33899974822998 C 16.68681144714355 7.839840412139893 20.35320091247559 4.179500102996826 24.85980224609375 4.179500102996826 M 3.827711582183838 27.83880043029785 C 2.436161518096924 27.83880043029785 1.153611540794373 27.08356094360352 0.4806115925312042 25.86779975891113 C -0.01477842219173908 24.97452926635742 -0.132598415017128 23.94194030761719 0.1488515734672546 22.96022987365723 C 0.4303215742111206 21.97842025756836 1.077441573143005 21.16517066955566 1.971011519432068 20.6702995300293 L 13.03111171722412 14.53950023651123 C 12.88045120239258 13.7716703414917 12.80431175231934 12.97978019714355 12.80431175231934 12.18690013885498 C 12.80431175231934 8.931460380554199 14.07419204711914 5.871000289916992 16.38001251220703 3.569290161132812 C 18.6858024597168 1.267600178718567 21.75164222717285 2.151489297830267e-07 25.01280212402344 2.151489297830267e-07 C 28.27395248413086 2.151489297830267e-07 31.33980178833008 1.267600178718567 33.64561080932617 3.569290161132812 C 35.95143127441406 5.871010303497314 37.2213020324707 8.931469917297363 37.2213020324707 12.18690013885498 C 37.2213020324707 15.44198989868164 35.95143127441406 18.5023307800293 33.64561080932617 20.80418014526367 C 31.33971214294434 23.10608100891113 28.27386093139648 24.37380027770996 25.01280212402344 24.37380027770996 C 21.9635009765625 24.37380027770996 19.04403114318848 23.24584007263184 16.79219245910645 21.19770050048828 L 5.678111553192139 27.35820007324219 C 5.11095142364502 27.67260932922363 4.471091747283936 27.83880043029785 3.827711582183838 27.83880043029785 Z M 24.85980224609375 5.179500102996826 C 20.90459251403809 5.179500102996826 17.68681144714355 8.391240119934082 17.68681144714355 12.33899974822998 C 17.68681144714355 16.2867603302002 20.90459251403809 19.49850082397461 24.85980224609375 19.49850082397461 C 28.81502151489258 19.49850082397461 32.03281021118164 16.2867603302002 32.03281021118164 12.33899974822998 C 32.03281021118164 8.391240119934082 28.81502151489258 5.179500102996826 24.85980224609375 5.179500102996826 Z" stroke="none" fill="#707070"/>
    </g>
  </g>
</svg>
