<svg xmlns="http://www.w3.org/2000/svg" width="94.342" height="73.3" viewBox="0 0 94.342 73.3">
  <g id="组_68" data-name="组 68" transform="translate(-247.062 -1680.348)">
    <g id="减去_1" data-name="减去 1" transform="translate(212.045 1680.348)" fill="#fff" stroke-linejoin="bevel">
      <path d="M 118.8855209350586 72.79959869384766 C 117.0862197875977 72.79959869384766 115.3164215087891 72.30738830566406 113.7674179077148 71.37617492675781 L 90.99013519287109 57.68982315063477 L 90.67341613769531 57.49951171875 L 90.39852142333984 57.74638748168945 C 84.3548583984375 63.17392349243164 76.54518127441406 66.16300201416016 68.40810394287109 66.16300201416016 C 63.96736907958984 66.16300201416016 59.65975570678711 65.29497528076172 55.60493087768555 63.58303833007812 C 51.68825531005859 61.92943572998047 48.17061996459961 59.56203842163086 45.14973068237305 56.54660034179688 C 42.1288948059082 53.53121185302734 39.75728225708008 50.02003860473633 38.10076904296875 46.11061096191406 C 36.38585662841797 42.06341171264648 35.51631927490234 37.76390075683594 35.51631927490234 33.33150100708008 C 35.51631927490234 28.89911270141602 36.38585662841797 24.59959983825684 38.10076904296875 20.55239868164062 C 39.75729370117188 16.6429500579834 42.12890625 13.13177394866943 45.14973068237305 10.11639976501465 C 48.17055511474609 7.101024150848389 51.68819427490234 4.733624458312988 55.60493087768555 3.079961776733398 C 59.65978240966797 1.368024349212646 63.9673957824707 0.4999993443489075 68.40810394287109 0.4999993443489075 C 72.84880828857422 0.4999993443489075 77.15641784667969 1.368024349212646 81.21128082275391 3.079961776733398 C 85.12799072265625 4.733599185943604 88.6456298828125 7.100999355316162 91.66648101806641 10.11639976501465 C 94.68729400634766 13.13176155090332 97.05890655517578 16.64293670654297 98.7154541015625 20.55239868164062 C 100.4303665161133 24.59959983825684 101.2999038696289 28.89911270141602 101.2999038696289 33.33150100708008 C 101.2999038696289 35.52953720092773 101.0803833007812 37.72936248779297 100.6474304199219 39.869873046875 L 100.5774536132812 40.21581268310547 L 100.879997253418 40.39758682250977 L 124.0253067016602 54.30438613891602 C 126.3052062988281 55.674560546875 127.9151229858398 57.85044860839844 128.5584259033203 60.43117523193359 C 129.2017364501953 63.01183700561523 128.8015899658203 65.68875122070312 127.4317169189453 67.96879577636719 C 126.5300598144531 69.46894836425781 125.2487945556641 70.70719909667969 123.7264938354492 71.54957580566406 C 122.2486801147461 72.36734771728516 120.57470703125 72.79959869384766 118.8855209350586 72.79959869384766 Z M 67.99050903320312 13.66599941253662 C 56.89779281616211 13.66599941253662 47.87320709228516 22.67483711242676 47.87320709228516 33.74819946289062 C 47.87320709228516 44.82156372070312 56.89779281616211 53.83039855957031 67.99050903320312 53.83039855957031 C 79.08322143554688 53.83039855957031 88.10780334472656 44.82156372070312 88.10780334472656 33.74819946289062 C 88.10780334472656 22.67483711242676 79.08322143554688 13.66599941253662 67.99050903320312 13.66599941253662 Z" stroke="none"/>
      <path d="M 118.8855209350586 72.29959869384766 C 120.490234375 72.29959869384766 122.0805053710938 71.88896179199219 123.4844055175781 71.11208343505859 C 124.9299163818359 70.31220245361328 126.1467056274414 69.13616180419922 127.0031356811523 67.71129608154297 C 128.3042297363281 65.54571533203125 128.6842803955078 63.00320053100586 128.0732727050781 60.5521125793457 C 127.462272644043 58.1009635925293 125.9331817626953 56.03433609008789 123.7677917480469 54.73297500610352 L 100.6224822998047 40.82617568969727 L 100.157356262207 39.77074813842773 C 100.5837173461914 37.66279983520508 100.7999038696289 35.49631118774414 100.7999038696289 33.33150100708008 C 100.7999038696289 28.96649932861328 99.94371032714844 24.73262405395508 98.25508117675781 20.74747467041016 C 96.62379455566406 16.89763641357422 94.28823089599609 13.43988704681396 91.31325531005859 10.47027397155762 C 88.33817291259766 7.500561714172363 84.87394714355469 5.169074535369873 81.01680755615234 3.540599346160889 C 77.02381896972656 1.854774355888367 72.78164672851562 0.9999993443489075 68.40810394287109 0.9999993443489075 C 64.03455352783203 0.9999993443489075 59.79238128662109 1.854774355888367 55.79941940307617 3.540586948394775 C 51.94225692749023 5.1690993309021 48.47803115844727 7.500574111938477 45.50296783447266 10.47027397155762 C 42.52796936035156 13.43989944458008 40.19240570068359 16.89764976501465 38.5611457824707 20.74747467041016 C 36.87252044677734 24.73262405395508 36.01631927490234 28.96649932861328 36.01631927490234 33.33150100708008 C 36.01631927490234 37.69649887084961 36.87252044677734 41.93038558959961 38.5611457824707 45.91553497314453 C 40.1923942565918 49.76533508300781 42.52795791625977 53.22308731079102 45.50295639038086 56.19272613525391 C 48.47808074951172 59.1624755859375 51.94230651855469 61.49394989013672 55.79940795898438 63.12239837646484 C 59.7923583984375 64.8082275390625 64.03453063964844 65.66300201416016 68.40810394287109 65.66300201416016 C 76.42164611816406 65.66300201416016 84.11267852783203 62.71937561035156 90.06444549560547 57.37438583374023 L 91.24765777587891 57.26123809814453 L 114.0250473022461 70.94764709472656 C 115.4962539672852 71.83209991455078 117.1769790649414 72.29959869384766 118.8855209350586 72.29959869384766 M 67.99050903320312 13.16599941253662 C 79.35891723632812 13.16599941253662 88.60780334472656 22.39913749694824 88.60780334472656 33.74819946289062 C 88.60780334472656 45.09726333618164 79.35891723632812 54.33039855957031 67.99050903320312 54.33039855957031 C 56.62209320068359 54.33039855957031 47.37320709228516 45.09726333618164 47.37320709228516 33.74819946289062 C 47.37320709228516 22.39913749694824 56.62209320068359 13.16599941253662 67.99050903320312 13.16599941253662 M 118.8855209350586 73.29959869384766 C 116.9954833984375 73.29959869384766 115.1365814208984 72.78267669677734 113.5098037719727 71.80470275878906 L 90.73260498046875 58.11840057373047 C 84.59708404541016 63.62842559814453 76.6683349609375 66.66300201416016 68.40810394287109 66.66300201416016 C 63.90021896362305 66.66300201416016 59.52718353271484 65.78173828125 55.41045761108398 64.04366302490234 C 51.43418121337891 62.36489868164062 47.86313247680664 59.96157455444336 44.79649353027344 56.90047454833984 C 41.7298583984375 53.83936309814453 39.32218170166016 50.27476119995117 37.64039611816406 46.30568695068359 C 35.8991813659668 42.1964225769043 35.01631927490234 37.8312873840332 35.01631927490234 33.33150100708008 C 35.01631927490234 28.83172416687012 35.8991813659668 24.46658706665039 37.64039611816406 20.35732460021973 C 39.32218170166016 16.38826179504395 41.72984313964844 12.82364940643311 44.79649353027344 9.762524604797363 C 47.86310577392578 6.701449394226074 51.43416976928711 4.298136711120605 55.41045761108398 2.619336843490601 C 59.52718353271484 0.8812743425369263 63.90021896362305 -6.5307619934174e-07 68.40810394287109 -6.5307619934174e-07 C 72.91599273681641 -6.5307619934174e-07 77.28901672363281 0.8812743425369263 81.40575408935547 2.619336843490601 C 85.38207244873047 4.298136711120605 88.95311737060547 6.701461791992188 92.01972198486328 9.762524604797363 C 95.08635711669922 12.82363700866699 97.4940185546875 16.38823699951172 99.17583465576172 20.35732460021973 C 100.9170455932617 24.46658706665039 101.7999038696289 28.83172416687012 101.7999038696289 33.33150100708008 C 101.7999038696289 35.56274795532227 101.5770416259766 37.79592514038086 101.1375045776367 39.96899795532227 L 124.2828216552734 53.87580108642578 C 126.6772308349609 55.31480026245117 128.3679656982422 57.59992599487305 129.0435791015625 60.31023788452148 C 129.7191772460938 63.02046203613281 129.2989501953125 65.831787109375 127.8603210449219 68.22630310058594 C 126.9133911132812 69.80175018310547 125.5676727294922 71.10218811035156 123.9685821533203 71.987060546875 C 122.4168853759766 72.84572601318359 120.6591796875 73.29959869384766 118.8855209350586 73.29959869384766 Z M 67.99050903320312 14.16599941253662 C 57.17348098754883 14.16599941253662 48.37320709228516 22.95053672790527 48.37320709228516 33.74819946289062 C 48.37320709228516 44.54586029052734 57.17348098754883 53.33039855957031 67.99050903320312 53.33039855957031 C 78.80751800537109 53.33039855957031 87.60780334472656 44.54586029052734 87.60780334472656 33.74819946289062 C 87.60780334472656 22.95053672790527 78.80751800537109 14.16599941253662 67.99050903320312 14.16599941253662 Z" stroke="none" fill="#707070"/>
    </g>
  </g>
</svg>
