<svg xmlns="http://www.w3.org/2000/svg" width="101.803" height="76.141" viewBox="0 0 101.803 76.141">
  <g id="组_68" data-name="组 68" transform="translate(-212.042 -1680.348)">
    <g id="减去_1" data-name="减去 1" transform="translate(212.045 1680.348)" fill="#fff" stroke-linejoin="bevel">
      <path d="M 10.46519756317139 75.64089965820312 C 6.842451095581055 75.64089965820312 3.501757621765137 73.67424011230469 1.746810913085938 70.50838470458984 C 0.4595842361450195 68.1859130859375 0.1549442261457443 65.49711608886719 0.8890509009361267 62.93734359741211 C 1.623144268989563 60.37755584716797 3.306450843811035 58.25891494750977 5.628890991210938 56.97171783447266 L 35.87971878051758 40.20290374755859 L 36.19790267944336 40.02651596069336 L 36.12798309326172 39.66949081420898 C 35.72210311889648 37.5971565246582 35.51630401611328 35.46474456787109 35.51630401611328 33.33150482177734 C 35.51630401611328 28.89912986755371 36.38583755493164 24.599609375 38.10074234008789 20.55241012573242 C 39.75733184814453 16.64288902282715 42.12894439697266 13.13171672821045 45.14971923828125 10.1163969039917 C 48.17057037353516 7.101009845733643 51.68820953369141 4.733609676361084 55.60493087768555 3.079969882965088 C 59.65978240966797 1.368023157119751 63.96738433837891 0.4999964833259583 68.40810394287109 0.4999964833259583 C 72.84882354736328 0.4999964833259583 77.15642547607422 1.368023157119751 81.21128082275391 3.079969882965088 C 85.12799835205078 4.733609676361084 88.64563751220703 7.101009845733643 91.66648101806641 10.1163969039917 C 94.68729400634766 13.13174343109131 97.05890655517578 16.64292907714844 98.7154541015625 20.55239677429199 C 100.4303741455078 24.599609375 101.2999038696289 28.89911651611328 101.2999038696289 33.33150482177734 C 101.2999038696289 37.76387786865234 100.4303741455078 42.06338500976562 98.7154541015625 46.110595703125 C 97.05890655517578 50.02006149291992 94.68729400634766 53.53125 91.66648101806641 56.54660797119141 C 88.64563751220703 59.56199645996094 85.12799835205078 61.92939758300781 81.21128082275391 63.58303833007812 C 77.15642547607422 65.29498291015625 72.84882354736328 66.16300964355469 68.40810394287109 66.16300964355469 C 60.1939697265625 66.16300964355469 52.32886505126953 63.12416839599609 46.26162338256836 57.60628890991211 L 45.99637222290039 57.36506271362305 L 45.68279647827148 57.53889083862305 L 15.28438377380371 74.38959503173828 C 13.80995750427246 75.20735931396484 12.14345073699951 75.64002227783203 10.46493053436279 75.64089965820312 L 10.46519756317139 75.64089965820312 Z M 67.99050140380859 13.66599655151367 C 56.89778518676758 13.66599655151367 47.87319946289062 22.67483711242676 47.87319946289062 33.74819564819336 C 47.87319946289062 44.82155609130859 56.89778518676758 53.83039474487305 67.99050140380859 53.83039474487305 C 79.08322143554688 53.83039474487305 88.10781097412109 44.82155609130859 88.10781097412109 33.74819564819336 C 88.10781097412109 22.67483711242676 79.08322143554688 13.66599655151367 67.99050140380859 13.66599655151367 Z" stroke="none"/>
      <path d="M 10.4648551940918 75.14089965820312 C 12.05873012542725 75.14002990722656 13.64146995544434 74.72904205322266 15.04197120666504 73.95229339599609 L 45.44038391113281 57.10158157348633 L 46.5980224609375 57.23639678955078 C 52.57303619384766 62.67038345336914 60.31866455078125 65.66300964355469 68.40810394287109 65.66300964355469 C 72.78165435791016 65.66300964355469 77.02382659912109 64.80821990966797 81.01679992675781 63.12240982055664 C 84.87394714355469 61.49391555786133 88.33817291259766 59.16243743896484 91.31324768066406 56.19272994995117 C 94.28822326660156 53.22311782836914 96.62379455566406 49.7653694152832 98.25508117675781 45.91553115844727 C 99.94370269775391 41.93037033081055 100.7999038696289 37.69649124145508 100.7999038696289 33.33150482177734 C 100.7999038696289 28.96650314331055 99.94370269775391 24.73262405395508 98.25508117675781 20.74747657775879 C 96.62379455566406 16.89762306213379 94.28822326660156 13.43987655639648 91.31324768066406 10.47027683258057 C 88.33817291259766 7.500569820404053 84.87394714355469 5.169089794158936 81.01680755615234 3.540596485137939 C 77.02382659912109 1.854783177375793 72.78165435791016 0.9999964833259583 68.40810394287109 0.9999964833259583 C 64.03456115722656 0.9999964833259583 59.79238510131836 1.854783177375793 55.79941177368164 3.540596485137939 C 51.94226455688477 5.169089794158936 48.4780387878418 7.500569820404053 45.50295639038086 10.47027683258057 C 42.52801132202148 13.4398365020752 40.19243621826172 16.89759635925293 38.56111907958984 20.74747657775879 C 36.87250518798828 24.73263740539551 36.01630401611328 28.96651649475098 36.01630401611328 33.33150482177734 C 36.01630401611328 35.43257141113281 36.21897125244141 37.53263473510742 36.6186637878418 39.57339477539062 L 36.12213134765625 40.64020919799805 L 5.871277332305908 57.40903472900391 C 3.665650844573975 58.63150405883789 2.066957473754883 60.64376831054688 1.369677543640137 63.07516860961914 C 0.6723842024803162 65.50656890869141 0.961637556552887 68.06033325195312 2.184117555618286 70.26596832275391 C 3.850882530212402 73.27275848388672 7.024004936218262 75.14067840576172 10.4648551940918 75.14089965820312 M 67.99050140380859 13.16599655151367 C 79.35893249511719 13.16599655151367 88.60781097412109 22.39912986755371 88.60781097412109 33.74819564819336 C 88.60781097412109 45.09726333618164 79.35893249511719 54.33039474487305 67.99050140380859 54.33039474487305 C 56.62207794189453 54.33039474487305 47.37319946289062 45.09726333618164 47.37319946289062 33.74819564819336 C 47.37319946289062 22.39912986755371 56.62207794189453 13.16599655151367 67.99050140380859 13.16599655151367 M 10.46519756317139 76.14089965820312 C 6.660797595977783 76.14089965820312 3.152530908584595 74.07554626464844 1.309504270553589 70.75079345703125 C -0.04248244315385818 68.31149291992188 -0.3624957799911499 65.48766326904297 0.4084242284297943 62.79950332641602 C 1.179330945014954 60.11134338378906 2.947250843048096 57.88634490966797 5.386504173278809 56.53439712524414 L 35.63730239868164 39.76559829711914 C 35.22506332397461 37.66078186035156 35.01630401611328 35.49567794799805 35.01630401611328 33.33150482177734 C 35.01630401611328 28.83174324035645 35.899169921875 24.46658325195312 37.6403694152832 20.35733032226562 C 39.32221221923828 16.38821029663086 41.72986602783203 12.82361030578613 44.79648971557617 9.762529373168945 C 47.86311721801758 6.701436519622803 51.43416976928711 4.298130035400391 55.41044998168945 2.619343280792236 C 59.52717208862305 0.8812764883041382 63.90021133422852 -3.504231699480442e-06 68.40810394287109 -3.504231699480442e-06 C 72.91600036621094 -3.504231699480442e-06 77.28903961181641 0.8812764883041382 81.40575408935547 2.619343280792236 C 85.38203430175781 4.298130035400391 88.95309448242188 6.701436519622803 92.01971435546875 9.762529373168945 C 95.08634185791016 12.82361030578613 97.49401092529297 16.38821029663086 99.17582702636719 20.35733032226562 C 100.9170379638672 24.46658325195312 101.7999038696289 28.83174324035645 101.7999038696289 33.33150482177734 C 101.7999038696289 37.83126449584961 100.9170379638672 42.1964111328125 99.17582702636719 46.3056755065918 C 97.49401092529297 50.27478408813477 95.08634185791016 53.83938217163086 92.01971435546875 56.90047836303711 C 88.95309448242188 59.96157073974609 85.38203430175781 62.36487579345703 81.40575408935547 64.04366302490234 C 77.28903961181641 65.78173065185547 72.91600036621094 66.66300964355469 68.40810394287109 66.66300964355469 C 60.06929016113281 66.66300964355469 52.084716796875 63.57798385620117 45.92520904541016 57.9761962890625 L 15.5267972946167 74.826904296875 C 13.97855758666992 75.68560028076172 12.2282772064209 76.13998413085938 10.46519756317139 76.14089965820312 Z M 67.99050140380859 14.16599655151367 C 57.17349243164062 14.16599655151367 48.37319946289062 22.95054244995117 48.37319946289062 33.74819564819336 C 48.37319946289062 44.54586410522461 57.17349243164062 53.33039474487305 67.99050140380859 53.33039474487305 C 78.80751800537109 53.33039474487305 87.60781097412109 44.54586410522461 87.60781097412109 33.74819564819336 C 87.60781097412109 22.95054244995117 78.80751800537109 14.16599655151367 67.99050140380859 14.16599655151367 Z" stroke="none" fill="#707070"/>
    </g>
  </g>
</svg>
