<svg xmlns="http://www.w3.org/2000/svg" width="33.013" height="28.865" viewBox="0 0 33.013 28.865">
  <g id="组_68" data-name="组 68" transform="translate(-224.847 -1680.348)">
    <g id="减去_1" data-name="减去 1" transform="translate(212.042 1680.348)" fill="#fff" stroke-linejoin="bevel">
      <path d="M 41.99131011962891 28.36480140686035 C 41.23431015014648 28.36480140686035 40.4922981262207 28.10165977478027 39.90196990966797 27.62384986877441 L 32.52025985717773 21.64613151550293 L 32.22154998779297 21.40423011779785 L 31.91098785400391 21.63071060180664 C 29.89875793457031 23.0981502532959 27.51340866088867 23.87380027770996 25.01279830932617 23.87380027770996 C 21.8851490020752 23.87380027770996 18.94474792480469 22.65797996520996 16.73324775695801 20.45032119750977 C 14.52205848693848 18.24295043945312 13.30429840087891 15.30827045440674 13.30429840087891 12.1869010925293 C 13.30429840087891 9.065190315246582 14.522047996521 6.130400657653809 16.73323822021484 3.923160791397095 C 18.94463920593262 1.715700745582581 21.88503837585449 0.5000007152557373 25.01279830932617 0.5000007152557373 C 28.14055824279785 0.5000007152557373 31.08095741271973 1.715700745582581 33.2923583984375 3.923160791397095 C 35.50354766845703 6.130400657653809 36.72129821777344 9.065190315246582 36.72129821777344 12.1869010925293 C 36.72129821777344 13.37184047698975 36.54391860961914 14.54145050048828 36.19406890869141 15.66324043273926 L 36.09304809570312 15.98716068267822 L 36.35675811767578 16.20069122314453 L 44.08506011962891 22.4583911895752 C 44.77518844604492 23.01722145080566 45.20635986328125 23.81119155883789 45.29911804199219 24.69403076171875 C 45.39189910888672 25.57681083679199 45.13522720336914 26.44282150268555 44.57640838623047 27.13254165649414 C 43.94272994995117 27.9157600402832 43.00057983398438 28.36480140686035 41.99131011962891 28.36480140686035 Z M 24.85979843139648 4.679500579833984 C 20.6288890838623 4.679500579833984 17.18679809570312 8.115540504455566 17.18679809570312 12.3390007019043 C 17.18679809570312 16.56245994567871 20.6288890838623 19.99850082397461 24.85979843139648 19.99850082397461 C 29.09070777893066 19.99850082397461 32.53279876708984 16.56245994567871 32.53279876708984 12.3390007019043 C 32.53279876708984 8.115540504455566 29.09070777893066 4.679500579833984 24.85979843139648 4.679500579833984 Z" stroke="none"/>
      <path d="M 41.99131011962891 27.86480140686035 C 42.84892654418945 27.86480140686035 43.64940643310547 27.48336982727051 44.18791961669922 26.81778144836426 C 44.66262817382812 26.23186111450195 44.88066864013672 25.49620056152344 44.80184936523438 24.74628067016602 C 44.72304916381836 23.99627113342285 44.35673904418945 23.32175064086914 43.77040863037109 22.84697151184082 L 36.04210662841797 16.58927154541016 L 35.71674728393555 15.51438045501709 C 36.05153656005859 14.44084072113037 36.22129821777344 13.32131099700928 36.22129821777344 12.1869010925293 C 36.22129821777344 9.198910713195801 35.05566787719727 6.389800548553467 32.93911743164062 4.277030467987061 C 30.82212829589844 2.163800716400146 28.00716781616211 1.000000715255737 25.01279830932617 1.000000715255737 C 22.01842880249023 1.000000715255737 19.20346832275391 2.163800716400146 17.08647918701172 4.277030467987061 C 14.96992874145508 6.389800548553467 13.80429840087891 9.198910713195801 13.80429840087891 12.1869010925293 C 13.80429840087891 15.174560546875 14.96993827819824 17.98356056213379 17.08648872375488 20.09646034240723 C 19.20358848571777 22.20988082885742 22.0185375213623 23.37380027770996 25.01279830932617 23.37380027770996 C 27.40679740905762 23.37380027770996 29.69027900695801 22.63135147094727 31.61637878417969 21.22673034667969 L 32.83492660522461 21.25756072998047 L 40.21653747558594 27.23521041870117 C 40.71814727783203 27.64121055603027 41.34843826293945 27.86480140686035 41.99131011962891 27.86480140686035 M 24.85979843139648 4.179500579833984 C 29.36640739440918 4.179500579833984 33.03279876708984 7.839840888977051 33.03279876708984 12.3390007019043 C 33.03279876708984 16.83816146850586 29.36640739440918 20.49850082397461 24.85979843139648 20.49850082397461 C 20.35318756103516 20.49850082397461 16.68679809570312 16.83816146850586 16.68679809570312 12.3390007019043 C 16.68679809570312 7.839840888977051 20.35318756103516 4.179500579833984 24.85979843139648 4.179500579833984 M 41.99131011962891 28.86480140686035 C 41.12016677856445 28.86480140686035 40.26643753051758 28.56211090087891 39.58739852905273 28.01250076293945 L 32.20559692382812 22.03470039367676 C 30.10722732543945 23.56496047973633 27.61956787109375 24.37380027770996 25.01279830932617 24.37380027770996 C 21.75174903869629 24.37380027770996 18.68589782714844 23.10608100891113 16.3799991607666 20.80418014526367 C 14.07417869567871 18.50234031677246 12.80429840087891 15.44200038909912 12.80429840087891 12.1869010925293 C 12.80429840087891 8.931460380554199 14.07417869567871 5.87100076675415 16.3799991607666 3.569290637969971 C 18.68579864501953 1.267600655555725 21.75164794921875 7.034301461317227e-07 25.01279830932617 7.034301461317227e-07 C 28.27394866943359 7.034301461317227e-07 31.33979797363281 1.267600655555725 33.64559936523438 3.569290637969971 C 35.95141983032227 5.87100076675415 37.22129821777344 8.931460380554199 37.22129821777344 12.1869010925293 C 37.22129821777344 13.42237091064453 37.03628921508789 14.64206027984619 36.6713981628418 15.81210041046143 L 44.39970016479492 22.06980133056641 C 45.19363784790039 22.71269035339355 45.68965911865234 23.62610054016113 45.79637908935547 24.64178085327148 C 45.90311813354492 25.65741157531738 45.60783004760742 26.65377044677734 44.96489715576172 27.44729995727539 C 44.23605728149414 28.34814071655273 43.15222930908203 28.86480140686035 41.99131011962891 28.86480140686035 Z M 24.85979843139648 5.179500579833984 C 20.90458869934082 5.179500579833984 17.68679809570312 8.391241073608398 17.68679809570312 12.3390007019043 C 17.68679809570312 16.2867603302002 20.90458869934082 19.49850082397461 24.85979843139648 19.49850082397461 C 28.81500816345215 19.49850082397461 32.03279876708984 16.2867603302002 32.03279876708984 12.3390007019043 C 32.03279876708984 8.391241073608398 28.81500816345215 5.179500579833984 24.85979843139648 5.179500579833984 Z" stroke="none" fill="#707070"/>
    </g>
  </g>
</svg>
