<svg xmlns="http://www.w3.org/2000/svg" width="155.733" height="133.697" viewBox="0 0 155.733 133.697">
  <g id="组_42" data-name="组 42" transform="translate(-1500.633 -1916.651)">
    <g id="组_39" data-name="组 39" transform="translate(80 -89.652)">
      <path id="路径_5" data-name="路径 5" d="M346.441,224.519H262.033A6.032,6.032,0,0,1,256,218.474V97.564a6.04,6.04,0,0,1,6.029-6.045h84.408a6.04,6.04,0,0,1,6.029,6.045v120.91a6.032,6.032,0,0,1-6.029,6.045Zm0,0" transform="translate(1223.896 1915.481)" fill="#f1f5f7"/>
      <path id="路径_6" data-name="路径 6" d="M329.336,164.7H262.668a6.685,6.685,0,0,1,0-13.37h66.669a6.685,6.685,0,0,1,0,13.37Zm0,0" transform="translate(1232.132 1870.666)" fill="#6093cc"/>
      <path id="路径_6-2" data-name="路径 6" d="M329.336,164.7H262.668a6.685,6.685,0,0,1,0-13.37h66.669a6.685,6.685,0,0,1,0,13.37Zm0,0" transform="translate(1232.132 1897.666)" fill="#6093cc"/>
      <path id="路径_6-3" data-name="路径 6" d="M329.336,164.7H262.668a6.685,6.685,0,0,1,0-13.37h66.669a6.685,6.685,0,0,1,0,13.37Zm0,0" transform="translate(1232.132 1924.666)" fill="#6093cc"/>
      <path id="路径_6-4" data-name="路径 6" d="M329.336,164.7H262.668a6.685,6.685,0,0,1,0-13.37h66.669a6.685,6.685,0,0,1,0,13.37Zm0,0" transform="translate(1232.132 1951.666)" fill="#6093cc"/>
    </g>
    <path id="路径_10" data-name="路径 10" d="M95.79,32.738a4.368,4.368,0,0,0-3.654-.953L21.024,45.155A4.454,4.454,0,0,0,17.4,49.53v98.043a4.448,4.448,0,0,0,3.627,4.376l71.112,13.37a4.248,4.248,0,0,0,.818.08,4.447,4.447,0,0,0,4.443-4.456V36.161a4.429,4.429,0,0,0-1.607-3.423Zm0,0" transform="translate(1483.236 1884.949)" fill="#6093cc"/>
    <path id="路径_11" data-name="路径 11" d="M122.015,231.918a5.012,5.012,0,0,1-4.35,4.412,4.336,4.336,0,0,1-.62.04,5.012,5.012,0,0,1-4.68-3.248l-10.321-27.593L91.725,233.121a5,5,0,0,1-9.629-1.063l-5-35.093a5,5,0,1,1,9.9-1.413l2.23,15.682,8.131-21.748c1.459-3.911,7.9-3.911,9.369,0l7.658,20.473,2.691-24.285a5,5,0,1,1,9.942,1.114Zm0,0" transform="translate(1432.855 1775.056)" fill="#fcfcfc"/>
  </g>
</svg>
