<svg xmlns="http://www.w3.org/2000/svg" width="46.57" height="41.78" viewBox="0 0 46.57 41.78">
  <g id="组_42" data-name="组 42" transform="translate(-1464.633 -1762.648)">
    <g id="组_39" data-name="组 39" transform="translate(1 -244.352)">
      <path id="路径_5" data-name="路径 5" d="M284.413,133.3H257.9A1.9,1.9,0,0,1,256,131.4V93.418a1.9,1.9,0,0,1,1.894-1.9h26.516a1.9,1.9,0,0,1,1.894,1.9V131.4a1.9,1.9,0,0,1-1.894,1.9Zm0,0" transform="translate(1223.896 1915.481)" fill="#f1f5f7"/>
      <path id="路径_6" data-name="路径 6" d="M258.085,155.511a2.089,2.089,0,0,1,0-4.178h20.834a2.089,2.089,0,0,1,0,4.178Zm20.834,0" transform="translate(1226.55 1858.875)" fill="#6093cc"/>
      <path id="路径_6-2" data-name="路径 6" d="M258.085,155.511a2.089,2.089,0,0,1,0-4.178h20.834a2.089,2.089,0,0,1,0,4.178Zm20.834,0" transform="translate(1226.55 1868.875)" fill="#6093cc"/>
      <path id="路径_6-3" data-name="路径 6" d="M258.085,155.511a2.089,2.089,0,0,1,0-4.178h20.834a2.089,2.089,0,0,1,0,4.178Zm20.834,0" transform="translate(1226.55 1878.875)" fill="#6093cc"/>
      <path id="路径_6-4" data-name="路径 6" d="M258.085,155.511a2.089,2.089,0,0,1,0-4.178h20.834a2.089,2.089,0,0,1,0,4.178Zm20.834,0" transform="translate(1226.55 1888.875)" fill="#6093cc"/>
    </g>
    <path id="路径_10" data-name="路径 10" d="M41.895,32.026a1.365,1.365,0,0,0-1.142-.3L18.53,35.907A1.392,1.392,0,0,0,17.4,37.274V67.912A1.39,1.39,0,0,0,18.53,69.28l22.222,4.178a1.328,1.328,0,0,0,.256.025A1.39,1.39,0,0,0,42.4,72.091V33.1a1.384,1.384,0,0,0-.5-1.07Zm0,0" transform="translate(1447.236 1730.945)" fill="#6093cc"/>
    <path id="路径_11" data-name="路径 11" d="M93.234,199.468a1.8,1.8,0,0,1-1.566,1.588,1.562,1.562,0,0,1-.223.014A1.8,1.8,0,0,1,89.76,199.9l-3.716-9.933L82.33,199.9a1.8,1.8,0,0,1-3.466-.383l-1.8-12.633a1.8,1.8,0,1,1,3.564-.509l.8,5.645,2.927-7.829a1.874,1.874,0,0,1,3.373,0l2.757,7.37.969-8.742a1.8,1.8,0,1,1,3.579.4Zm0,0" transform="translate(1389.855 1590.473)" fill="#fcfcfc"/>
  </g>
</svg>
